<svg width="40" height="35" viewBox="0 0 40 35" fill="none" xmlns="http://www.w3.org/2000/svg">
<path d="M19.8621 34.6095C30.8317 34.6095 39.7242 34.3758 39.7242 34.0876C39.7242 33.7993 30.8317 33.5657 19.8621 33.5657C8.89257 33.5657 0 33.7993 0 34.0876C0 34.3758 8.89257 34.6095 19.8621 34.6095Z" fill="url(#paint0_linear_829_5406)"/>
<path d="M12.7343 7.15756C12.2124 6.90406 11.6011 7.45579 12.6747 8.55924C13.2413 9.14079 14.2702 9.43902 13.9571 9.82672C13.6439 10.2144 12.8536 9.7969 12.1379 9.34955C11.4221 8.8873 10.9897 8.79783 10.9002 9.30482C10.8108 9.81181 12.1528 11.3924 13.8229 12.2275C15.493 13.0625 17.4315 13.7186 18.5796 13.659C19.7427 13.5993 19.8471 12.8687 18.4902 12.4213C17.1183 11.974 15.7763 11.4819 15.4781 11.0942C15.1798 10.6916 15.3886 10.3188 15.9552 10.4828C16.5219 10.6469 17.67 11.3924 18.4007 11.124C19.1165 10.8556 18.1472 10.1697 16.2982 9.30482C14.4343 8.41013 14.2553 7.90314 12.7343 7.15756Z" fill="#FFF5FA"/>
<path d="M17.5807 16.3728C16.2238 15.7615 14.7624 15.2097 11.3477 13.137C8.52943 11.4222 7.33651 10.4828 7.47072 11.7801C7.63474 13.3905 11.1539 15.0905 12.5854 15.8808C14.0169 16.686 14.6282 17.6701 14.4791 18.3412C14.33 19.0122 13.9423 19.385 12.0485 18.2964C10.1548 17.2228 9.69253 16.85 9.36448 17.7894C9.03642 18.7289 11.3626 19.9367 12.5705 20.5928C13.7634 21.2489 13.8379 22.3225 12.302 21.7112C10.7662 21.0998 7.93298 18.9674 6.88917 18.9227C5.84537 18.878 5.15944 19.7279 8.21629 21.8155C11.2582 23.9181 13.1967 24.8575 16.015 25.4689C18.8333 26.0653 19.3552 25.6776 19.042 24.7978C18.7289 23.9181 17.536 23.9181 16.686 23.3813C15.3142 22.5164 15.7913 21.9497 16.5518 22.2032C17.3272 22.4567 20.5481 23.8733 21.8156 23.933C24.112 24.0672 24.6339 22.9786 23.098 22.576C21.9796 22.2927 19.9815 21.3533 18.714 20.563C17.4465 19.7727 17.2378 19.0122 18.0132 18.9824C18.7885 18.9525 19.9218 19.713 20.6525 18.8631C21.3831 18.0131 19.8174 17.3719 17.5807 16.3728Z" fill="#FFF5FA"/>
<path d="M9.633 7.90325C9.30494 7.61994 8.57428 6.69542 8.27605 6.90418C7.97782 7.11294 8.00764 7.51556 8.35061 7.85852C8.69357 8.20149 9.73738 9.21547 10.0654 8.93215C10.3935 8.63392 10.0207 8.23131 9.633 7.90325Z" fill="#FFF5FA"/>
<path d="M1.29737 14.6283C0.969316 14.6879 1.65524 16.2089 3.59374 17.5808C4.84631 18.4754 5.71117 18.9377 5.81555 18.6842C5.90502 18.4755 4.62263 17.5658 3.9367 16.9247C2.71396 15.7616 1.68507 14.5537 1.29737 14.6283Z" fill="#FFF5FA"/>
<path d="M6.78458 14.3745C6.03901 14.2105 6.39688 15.5078 7.39595 16.3577C8.39503 17.2077 9.05113 17.327 8.91693 16.7753C8.78272 16.2385 7.85821 14.628 6.78458 14.3745Z" fill="#FFF5FA"/>
<path d="M4.19018 7.96289C3.6981 8.3655 4.65244 9.70753 5.21907 10.2294C5.80062 10.7513 6.47164 10.647 6.66549 10.2593C6.85934 9.87156 6.1585 9.26019 5.80062 8.91722C5.45766 8.57426 4.66735 7.56028 4.19018 7.96289Z" fill="#FFF5FA"/>
<path d="M20.1901 5.02513C18.1174 4.89092 17.1929 3.71291 16.4772 4.07079C15.7614 4.42867 17.0885 5.88999 19.5191 6.11367C21.9497 6.33734 23.1426 5.75579 23.1128 5.1146C23.083 4.4734 21.7409 5.12951 20.1901 5.02513Z" fill="#FFF5FA"/>
<path d="M15.6574 3.77256C15.9407 4.14535 15.3294 4.53305 14.6285 4.24973C13.9277 3.9515 11.8848 2.47526 12.019 1.7446C12.1681 1.02885 13.4058 1.89371 14.1215 2.49017C14.8522 3.07172 15.2846 3.26557 15.6574 3.77256Z" fill="#FFF5FA"/>
<path d="M23.9035 4.84629C23.7096 5.06996 23.8587 5.66642 24.9622 5.39802C25.7525 5.20417 27.6462 4.45859 27.5419 3.74284C27.4375 3.02709 26.5428 3.39987 25.7376 3.78757C24.9174 4.17527 24.2762 4.41385 23.9035 4.84629Z" fill="#FFF5FA"/>
<path d="M3.45964 19.9815C3.11667 19.9964 3.0272 20.6525 3.77278 21.3533C4.51835 22.0542 7.12787 23.4409 7.63486 23.6944C8.97689 24.3953 10.0505 24.7979 10.1102 24.5742C10.1698 24.3505 8.94707 23.7988 7.47083 22.8594C5.18937 21.4279 4.20521 19.9367 3.45964 19.9815Z" fill="#FFF5FA"/>
<path d="M27.7354 19.8024C30.0766 19.1612 31.687 18.1472 32.2685 18.4156C32.8501 18.6691 32.6413 19.2059 31.9554 19.8322C31.2695 20.4436 29.2713 21.3382 29.4354 21.7558C29.6739 22.3373 30.6581 22.054 32.194 21.383C33.7299 20.7269 34.4456 19.8769 35.0719 20.0857C35.7131 20.3094 35.3105 21.4575 34.4904 22.0838C33.6553 22.725 31.0011 23.739 28.6152 24.2609C26.2294 24.7679 25.0216 24.2907 25.3496 23.6943C25.6627 23.1127 27.4521 23.3066 27.646 22.8443C27.8398 22.3821 27.5416 22.0093 26.4978 22.0093C25.454 22.0093 23.2471 21.8154 23.8137 20.9655C24.3804 20.1304 25.4838 20.4137 27.7354 19.8024Z" fill="#FFF5FA"/>
<path d="M36.5184 15.1949C35.6387 15.9404 34.237 17.1035 33.8344 17.357C33.4318 17.6254 33.3721 17.9386 34.0431 17.8938C34.7141 17.8491 36.8465 16.2983 37.2789 15.4335C37.7114 14.5686 37.5473 14.33 36.5184 15.1949Z" fill="#FFF5FA"/>
<path d="M30.2109 16.7903C32.8651 15.7763 35.1615 13.8676 35.0422 12.9878C34.9378 12.1081 31.8661 14.4939 30.7179 14.7623C29.5697 15.0158 29.018 14.2404 29.8679 13.8378C30.7179 13.4352 32.0897 12.6896 32.1196 12.2572C32.1494 11.8098 31.3442 11.6607 30.1661 12.2572C28.9881 12.8536 26.6918 13.629 25.9909 13.7334C25.2901 13.8378 24.47 14.5088 24.5445 15.0307C24.6191 15.5526 25.648 15.5824 26.5427 15.4333C27.4224 15.2842 27.84 15.2096 28.0934 15.5824C28.3469 15.9552 26.1699 16.6113 24.7384 16.7306C23.2919 16.835 22.3078 17.5358 23.7393 17.8341C25.1857 18.1174 27.8847 17.67 30.2109 16.7903Z" fill="#FFF5FA"/>
<path d="M34.3118 9.97565C35.2513 9.2599 35.6091 8.72308 36.0416 8.88711C36.4889 9.05114 36.6529 9.5283 36.0416 10.1546C35.4302 10.7809 34.1329 11.8694 33.4768 11.5414C32.8207 11.2133 33.7154 10.423 34.3118 9.97565Z" fill="#FFF5FA"/>
<path d="M37.7562 18.8482C37.4133 19.0868 37.0405 19.2807 37.0852 19.6087C37.1299 19.9368 37.6668 20.0113 38.1141 19.6684C38.5614 19.3403 38.7404 19.0868 38.6807 18.8035C38.636 18.5202 38.1737 18.5649 37.7562 18.8482Z" fill="#FFF5FA"/>
<path d="M23.0979 7.67946C23.0979 7.67946 25.7522 6.99353 27.1688 6.18831C28.5854 5.38309 29.0924 5.26379 29.1073 5.71114C29.1222 6.15848 27.974 6.76986 28.2275 6.79968C28.4661 6.8295 29.1073 6.42689 30.166 5.63658C31.2247 4.84627 31.5677 4.63751 31.9404 5.02521C32.3132 5.41291 31.3738 6.63565 29.7932 7.75401C28.2275 8.87238 27.1539 9.31972 27.0197 9.99074C26.8854 10.6618 27.6161 10.7065 28.5555 10.1697C29.495 9.64778 30.33 9.4241 30.5239 9.91618C30.7177 10.4083 29.1669 11.5564 26.7363 12.5406C24.3058 13.5397 23.083 13.987 21.9945 14.151C20.9208 14.3151 20.8612 13.2414 21.6366 12.988C22.412 12.7345 24.0672 11.9889 24.2461 11.5415C24.4101 11.0942 23.6646 11.0644 22.7251 11.3179C21.7857 11.5714 21.398 10.6468 22.248 10.1548C23.1128 9.66269 24.9917 9.05132 25.1855 8.63379C25.3794 8.21627 23.59 9.17061 22.7997 9.18552C21.8454 9.23025 21.6962 8.09698 23.0979 7.67946Z" fill="#FFF5FA"/>
<path d="M17.3566 33.7149C17.9084 33.7149 18.3855 33.3123 18.4452 32.7904C18.5346 31.9703 18.4452 30.8072 17.4312 30.1212C15.7313 28.988 14.255 30.0914 14.255 30.0914C14.255 30.0914 14.6129 28.7643 13.763 27.8845C12.913 27.0047 11.6753 27.5714 11.6753 27.5714C11.6753 27.5714 10.9298 25.9609 9.25968 26.5276C7.58959 27.0942 8.21588 28.7345 8.21588 28.7345C8.21588 28.7345 7.00805 27.5714 5.47216 28.2871C3.93628 29.0178 4.75641 30.6879 4.75641 30.6879C4.75641 30.6879 3.30999 29.4353 2.01269 31.0607C1.34167 31.9106 1.6399 32.7307 1.96796 33.2228C2.16181 33.5211 2.51968 33.7149 2.89247 33.7149H17.3566Z" fill="url(#paint1_linear_829_5406)"/>
<path d="M16.6259 33.715C16.6259 33.715 17.789 33.0589 16.9689 31.687C16.1935 30.3748 13.6586 31.6423 13.6586 31.6423C13.6586 31.6423 14.3296 29.8678 13.1814 29.4205C12.2867 29.0626 11.5709 29.7187 11.5709 29.7187C11.5709 29.7187 11.2876 28.2872 10.3184 28.3021C8.57374 28.317 9.14037 30.345 9.14037 30.345C9.14037 30.345 8.09657 29.2863 6.7098 29.8976C5.32303 30.5239 5.88966 31.9256 5.88966 31.9256C5.88966 31.9256 4.27922 31.0309 3.66785 32.0598C3.04157 33.0887 3.66785 33.715 4.32396 33.715C4.98006 33.715 16.6259 33.715 16.6259 33.715Z" fill="url(#paint2_linear_829_5406)"/>
<path d="M25.6033 33.8193C25.0665 33.8193 24.5595 33.5062 24.3209 33.029C24.0823 32.5369 23.963 31.8808 24.4998 31.2695C25.5436 30.0765 26.9453 30.9563 26.9453 30.9563C26.9453 30.9563 26.0059 29.495 27.1541 28.6152C28.3022 27.7354 29.3759 28.5406 29.3759 28.5406C29.3759 28.5406 29.3908 25.6478 32.0152 26.0355C34.6396 26.4232 34.1177 28.7643 34.1177 28.7643C34.1177 28.7643 35.3405 27.8547 36.429 28.8389C37.5176 29.823 36.5632 30.9414 36.5632 30.9414C36.5632 30.9414 37.8605 30.3449 38.4421 31.6721C38.4421 31.687 38.457 31.7019 38.457 31.7168C38.8894 32.7308 38.1289 33.8491 37.0404 33.8491H25.6033V33.8193Z" fill="url(#paint3_linear_829_5406)"/>
<path d="M35.2359 33.7894C35.728 33.7894 36.22 33.6254 36.5928 33.3122C36.8612 33.0737 37.07 32.7605 37.0104 32.3579C36.8762 31.4036 35.7131 31.9106 35.7131 31.9106C35.7131 31.9106 36.4437 30.7922 35.4148 29.9124C34.3859 29.0326 33.029 30.0466 33.029 30.0466C33.029 30.0466 33.7447 27.9739 31.9106 27.6011C30.5089 27.3178 29.9572 29.5396 29.9572 29.5396C29.9572 29.5396 29.152 28.5406 27.8994 29.2712C26.6469 30.0019 28.2722 31.7167 28.2722 31.7167C28.2722 31.7167 26.7662 31.0755 25.782 31.8509C24.7829 32.6412 25.4539 33.7596 26.5574 33.7596C27.467 33.7745 33.4614 33.7894 35.2359 33.7894Z" fill="url(#paint4_linear_829_5406)"/>
<path d="M11.6755 1.56567L9.42383 26.6617H30.7622L28.1229 1.62532L11.6755 1.56567Z" fill="#F47F2D"/>
<path d="M29.0028 26.6617H11.1836L12.8686 4.23483L13.0624 1.56567L26.7959 1.62532L26.9301 3.027L29.0028 26.6617Z" fill="url(#paint5_linear_829_5406)"/>
<path d="M26.9302 3.027C26.7513 3.04191 26.5723 3.05682 26.3636 3.05682C22.7102 3.23576 16.1194 3.89187 12.8687 4.23483L13.0625 1.56567L26.796 1.61041L26.9302 3.027Z" fill="url(#paint6_linear_829_5406)"/>
<path d="M11.9141 27.7056C11.9141 27.7056 13.6886 32.8799 13.7631 33.1184C13.8973 33.4763 13.6438 34.0131 13.1667 33.9982C12.6895 33.9833 12.4509 33.6105 12.3465 33.3719C11.7799 32.1045 10.3335 27.9292 10.3335 27.9292L11.9141 27.7056Z" fill="url(#paint7_linear_829_5406)"/>
<path d="M27.3032 27.4968C27.3032 27.4968 25.5288 32.6711 25.4542 32.9097C25.32 33.2676 25.5735 33.8044 26.0507 33.7895C26.5129 33.7746 26.7664 33.4018 26.8708 33.1632C27.4374 31.8957 28.8838 27.7205 28.8838 27.7205L27.3032 27.4968Z" fill="url(#paint8_linear_829_5406)"/>
<path d="M11.7649 27.795C11.7649 27.795 11.6158 28.4212 11.407 29.2414C11.0343 30.7027 10.4974 32.8052 10.3036 33.357C10.0054 34.2218 9.6624 34.5499 8.69315 34.5051C7.79846 34.4604 7.99231 33.5508 8.08178 33.2078C8.32036 32.2833 8.85718 30.1361 9.20014 28.7791C9.37908 28.0783 9.49837 27.5713 9.49837 27.5713L11.7649 27.795Z" fill="url(#paint9_linear_829_5406)"/>
<path d="M11.7652 27.795C11.7652 27.795 11.6161 28.4212 11.4073 29.2414C11.3328 29.2116 11.2582 29.1668 11.1836 29.137C10.4828 28.794 9.75215 28.7493 9.21533 28.7791C9.39427 28.0783 9.51356 27.5713 9.51356 27.5713L11.7652 27.795Z" fill="#F94E33"/>
<path d="M32.1487 33.864C31.2093 34.0578 30.8067 33.7894 30.3743 32.9842C30.1208 32.4921 29.3305 30.6878 28.7489 29.3309C28.3612 28.4213 28.063 27.7204 28.063 27.7204L30.255 27.1538C30.255 27.1538 30.5532 27.8696 30.9409 28.7792C31.4777 30.0466 32.1935 31.7167 32.5364 32.4921C32.6856 32.8053 33.0136 33.685 32.1487 33.864Z" fill="url(#paint10_linear_829_5406)"/>
<path d="M30.956 28.7791C30.4491 28.7642 29.7929 28.8388 29.1667 29.137C29.0325 29.1967 28.8833 29.2712 28.7641 29.3309C28.3764 28.4213 28.0781 27.7204 28.0781 27.7204L30.2701 27.1538C30.2552 27.1389 30.5534 27.8546 30.956 28.7791Z" fill="#F94E33"/>
<path d="M31.4631 27.3626C31.2543 27.7652 30.7772 28.1082 29.7483 28.1678C28.0484 28.2722 10.6019 28.1529 9.5581 28.1231C8.93182 28.1082 8.54412 27.8248 8.33536 27.467C8.03713 26.96 8.09678 26.3039 8.32045 25.9758C8.70815 25.4092 9.49846 25.5136 10.1993 25.5136C10.1993 25.5136 29.6439 25.4092 30.3895 25.4092C31.135 25.4092 31.5526 25.8416 31.5973 26.5275C31.6271 26.7959 31.5973 27.0942 31.4631 27.3626Z" fill="url(#paint11_linear_829_5406)"/>
<path d="M31.4632 27.3625C31.2544 27.7652 30.7773 28.1081 29.7484 28.1678C28.0485 28.2721 10.602 28.1529 9.55819 28.123C8.93191 28.1081 8.54421 27.8248 8.33545 27.4669C12.0633 27.452 26.2143 27.3775 31.4632 27.3625Z" fill="#F94E33"/>
<path d="M9.7665 26.2292C10.1989 26.2143 12.4804 25.9459 14.5084 25.9608C16.5214 25.9757 18.0573 26.1696 19.0116 26.1845C19.966 26.1994 20.0554 26.2441 19.7721 26.2889C19.4888 26.3336 15.6715 26.1547 14.4636 26.1696C13.2558 26.1845 10.0796 26.3634 9.58756 26.3485C9.08057 26.3336 9.34898 26.2441 9.7665 26.2292Z" fill="#F47F2D"/>
<path d="M14.6575 26.8557C14.419 26.8706 14.3444 26.9899 15.0154 26.9899C15.6864 26.9899 18.7433 27.2434 19.6529 27.139C20.5625 27.0346 22.6948 26.8259 24.1562 26.9153C25.6622 27.0197 26.6017 26.9899 26.4376 26.9004C26.2885 26.8259 25.1105 26.6917 24.0965 26.6618C23.3211 26.632 21.7852 26.6469 20.3537 26.7811C18.9222 26.9153 17.2969 26.8706 16.5811 26.8557C15.8654 26.8408 15.0751 26.8259 14.6575 26.8557Z" fill="#F47F2D"/>
<path d="M21.9195 26.0057C21.5467 26.0355 21.1142 26.2442 22.2028 26.2144C23.1869 26.1846 24.7079 26.0802 27.1981 26.1846C29.6884 26.289 30.8216 26.3337 30.6427 26.2144C30.4637 26.0951 28.1226 25.9609 26.5569 25.9609C24.9912 25.946 22.5607 25.946 21.9195 26.0057Z" fill="#F47F2D"/>
<path d="M13.0469 26.9303C13.2408 26.9004 13.4644 26.7215 12.8978 26.7513C12.3908 26.7662 11.6005 26.8706 10.3032 26.7811C9.0059 26.6917 8.42435 26.6469 8.51382 26.7662C8.60329 26.8855 9.82603 26.9899 10.6313 26.9899C11.4365 26.9899 12.7039 26.9899 13.0469 26.9303Z" fill="#F47F2D"/>
<path d="M27.1683 26.8407C26.9446 26.9003 26.9446 27.0196 27.5709 26.96C28.1972 26.9152 28.898 26.9003 29.7927 26.9898C30.6725 27.0793 31.1496 26.8407 30.9856 26.8258C30.8216 26.8108 30.1655 26.7959 29.3603 26.7363C28.5699 26.6916 27.72 26.7065 27.1683 26.8407Z" fill="#F47F2D"/>
<path d="M28.5109 1.53589C28.3618 1.84903 28.004 2.11743 27.2286 2.16217C25.9611 2.23673 12.9582 2.14726 12.1978 2.11744C11.7355 2.10252 11.4373 1.87885 11.2882 1.61044C11.0645 1.22274 11.1092 0.715752 11.2882 0.447345C11.5864 0 12.1679 0.0894699 12.6898 0.0894699C12.6898 0.0894699 27.1689 0 27.7206 0C28.2724 0 28.5855 0.328054 28.6153 0.864868C28.6302 1.10345 28.6153 1.32712 28.5109 1.53589Z" fill="url(#paint12_linear_829_5406)"/>
<path d="M28.5109 1.53589C28.3618 1.84903 28.0039 2.11744 27.2285 2.16217C25.961 2.23673 12.9582 2.14726 12.1977 2.11744C11.7354 2.10253 11.4372 1.87885 11.2881 1.61045C14.0616 1.61045 24.6041 1.5508 28.5109 1.53589Z" fill="#F94E33"/>
<path d="M12.3462 0.656057C12.6742 0.641146 14.3741 0.432384 15.8802 0.447295C17.3862 0.462207 18.5195 0.611323 19.2353 0.626235C19.951 0.641146 20.0107 0.670969 19.8019 0.700792C19.5931 0.730615 16.7451 0.596411 15.8504 0.611322C14.9408 0.626234 12.5847 0.760437 12.212 0.745525C11.8392 0.745525 12.033 0.670969 12.3462 0.656057Z" fill="#F47F2D"/>
<path d="M15.9998 1.14814C15.8209 1.16305 15.7612 1.25252 16.2682 1.25252C16.7752 1.25252 19.0567 1.44637 19.7277 1.37181C20.3987 1.28234 21.9942 1.11831 23.0828 1.19287C24.2011 1.26743 24.902 1.25252 24.7827 1.17796C24.6634 1.11831 23.7985 1.01393 23.038 0.984109C22.4565 0.969197 21.3083 0.969198 20.2496 1.07358C19.1909 1.17796 17.9681 1.13322 17.4462 1.13322C16.8945 1.13322 16.298 1.13322 15.9998 1.14814Z" fill="#F47F2D"/>
<path d="M21.3976 0.492001C21.1292 0.521824 20.8011 0.67094 21.6064 0.656028C22.337 0.641116 23.4703 0.551648 25.3193 0.626205C27.1683 0.700763 28.0183 0.745496 27.8841 0.641116C27.7499 0.551647 26.0052 0.447266 24.8421 0.447266C23.694 0.447266 21.8748 0.447266 21.3976 0.492001Z" fill="#F47F2D"/>
<path d="M14.7917 1.20769C14.9408 1.17787 15.1048 1.04366 14.6873 1.05857C14.2996 1.07349 13.7181 1.14804 12.7488 1.0884C11.7796 1.01384 11.3471 0.984017 11.4068 1.07349C11.4664 1.16296 12.376 1.25242 12.9874 1.25242C13.5988 1.25242 14.5382 1.25242 14.7917 1.20769Z" fill="#F47F2D"/>
<path d="M25.3047 1.13325C25.1407 1.17798 25.1407 1.26745 25.6029 1.22272C26.0652 1.17798 26.602 1.17798 27.2581 1.23763C27.9142 1.29727 28.2721 1.11833 28.1528 1.11833C28.0335 1.11833 27.5414 1.10342 26.9449 1.05869C26.3485 1.01396 25.7073 1.02887 25.3047 1.13325Z" fill="#F47F2D"/>
<path d="M25.1106 19.9219L25.0957 19.9368C24.9913 20.0113 24.8422 19.9815 24.7676 19.8771L23.873 18.6544C23.7984 18.55 23.8282 18.4009 23.9326 18.3263L23.9475 18.3114C24.0519 18.2369 24.201 18.2667 24.2756 18.3711L25.1703 19.5938C25.2448 19.6982 25.215 19.8473 25.1106 19.9219Z" fill="url(#paint13_linear_829_5406)"/>
<path d="M27.9886 17.5211L27.9737 17.536C27.8991 17.6404 27.75 17.6702 27.6456 17.6106L26.3633 16.7756C26.2589 16.701 26.2291 16.5519 26.2887 16.4475L26.3036 16.4326C26.3782 16.3282 26.5273 16.2984 26.6317 16.358L27.9141 17.1931C28.0184 17.2676 28.0483 17.4168 27.9886 17.5211Z" fill="url(#paint14_linear_829_5406)"/>
<path d="M28.2726 12.5258L28.2876 12.5854C28.3025 12.7047 28.213 12.824 28.0937 12.8389L26.7964 13.0179C26.6771 13.0328 26.5578 12.9433 26.5429 12.824L26.528 12.7644C26.5131 12.6451 26.6026 12.5258 26.7218 12.5109L28.0191 12.3319C28.1533 12.317 28.2577 12.4065 28.2726 12.5258Z" fill="url(#paint15_linear_829_5406)"/>
<path d="M20.8911 21.1594C20.742 21.1743 20.6376 21.0699 20.6227 20.9357L20.5332 19.3104C20.5332 19.1762 20.6227 19.0569 20.7569 19.0569H20.7718C20.906 19.0569 21.0253 19.1464 21.0253 19.2806L21.1148 20.9059C21.1148 21.0401 21.0104 21.1445 20.8911 21.1594Z" fill="url(#paint16_linear_829_5406)"/>
<path d="M16.3132 20.3245L16.2834 20.3096C16.1641 20.2499 16.1342 20.1008 16.1939 19.9964L16.9096 18.6842C16.9693 18.5649 17.1184 18.5351 17.2228 18.5948L17.2526 18.6097C17.3719 18.6693 17.4017 18.8184 17.3421 18.9228L16.6263 20.235C16.5816 20.3394 16.4325 20.3841 16.3132 20.3245Z" fill="url(#paint17_linear_829_5406)"/>
<path d="M12.6894 16.358L12.6745 16.3281C12.6298 16.2089 12.6894 16.0747 12.8087 16.0299L14.2253 15.508C14.3446 15.4633 14.4788 15.5229 14.5235 15.6422L14.5385 15.672C14.5832 15.7913 14.5235 15.9255 14.4043 15.9703L12.9877 16.4922C12.8684 16.5369 12.7342 16.4773 12.6894 16.358Z" fill="url(#paint18_linear_829_5406)"/>
<path d="M12.1974 11.7802V11.7504C12.2123 11.6162 12.3316 11.5267 12.4509 11.5417L13.9421 11.6908C14.0763 11.7057 14.1657 11.825 14.1508 11.9443V11.9741C14.1359 12.1083 14.0166 12.1978 13.8973 12.1829L12.4062 12.0337C12.272 12.0188 12.1825 11.8995 12.1974 11.7802Z" fill="url(#paint19_linear_829_5406)"/>
<path d="M14.1359 7.45574L14.1508 7.44083C14.2403 7.35137 14.3894 7.35136 14.4789 7.45574L15.5078 8.54428C15.5972 8.63375 15.5972 8.78287 15.4929 8.87234L15.478 8.88725C15.3885 8.97672 15.2394 8.97672 15.1499 8.87234L14.121 7.7838C14.0315 7.69433 14.0315 7.54521 14.1359 7.45574Z" fill="url(#paint20_linear_829_5406)"/>
<path d="M18.2067 5.30857L18.2366 5.29366C18.3559 5.26384 18.4901 5.32348 18.5199 5.45769L18.9523 6.9041C18.9821 7.02339 18.9225 7.1576 18.7883 7.18742L18.7585 7.20233C18.6392 7.23215 18.505 7.17251 18.4751 7.03831L18.0427 5.59189C18.0129 5.48751 18.0874 5.35331 18.2067 5.30857Z" fill="url(#paint21_linear_829_5406)"/>
<path d="M23.6498 5.5919L23.6796 5.60681C23.7989 5.66646 23.8287 5.81558 23.7691 5.91996L23.0384 7.23217C22.9788 7.35146 22.8297 7.38128 22.7253 7.32164L22.6955 7.30672C22.5762 7.24708 22.5463 7.09796 22.606 6.99358L23.3367 5.68137C23.3963 5.57699 23.5454 5.53225 23.6498 5.5919Z" fill="url(#paint22_linear_829_5406)"/>
<path d="M27.512 8.947L27.5269 8.97683C27.5865 9.08121 27.5567 9.23032 27.4374 9.28997L26.1401 10.0505C26.0357 10.1101 25.8866 10.0803 25.827 9.96098L25.812 9.93116C25.7524 9.82678 25.7822 9.67766 25.9015 9.61802L27.1988 8.85753C27.3032 8.8128 27.4374 8.84262 27.512 8.947Z" fill="url(#paint23_linear_829_5406)"/>
<path d="M39.5305 23.3066L35.3105 20.6374L26.1101 14.8219C26.1101 14.8219 25.9759 14.5983 26.0803 14.4641C26.1996 14.3299 26.3338 14.3149 26.3338 14.3149L35.6833 20.0111L39.948 22.6057C40.1567 23.1127 39.5305 23.3066 39.5305 23.3066Z" fill="url(#paint24_linear_829_5406)"/>
<path d="M39.5305 23.3067L35.3105 20.6375C35.3255 20.6226 35.3255 20.6077 35.3404 20.6077C35.4895 20.3989 35.6237 20.1902 35.6982 19.9963L39.9629 22.5909C40.1568 23.1128 39.5305 23.3067 39.5305 23.3067Z" fill="url(#paint25_linear_829_5406)"/>
<path d="M14.7923 11.9889C14.7923 11.9889 15.0011 13.8379 15.0011 15.7913C15.0011 17.4763 14.7476 18.0877 14.7476 18.0877C14.7476 18.0877 14.8967 18.2964 14.9563 18.2517C15.016 18.192 15.2396 17.193 15.1949 15.4632C15.1651 13.7484 14.9563 11.9292 14.9563 11.9292C14.9563 11.9292 14.8669 11.8696 14.7923 11.9889Z" fill="url(#paint26_linear_829_5406)"/>
<path d="M13.853 18.8036C13.853 18.8036 14.2258 18.0878 14.5837 17.9983C14.9565 17.9089 15.031 18.2667 15.0012 18.5799C14.9714 18.8781 14.6583 19.3851 14.6583 19.3851C14.6583 19.3851 13.9723 19.1913 13.853 18.8036Z" fill="url(#paint27_linear_829_5406)"/>
<path d="M16.7159 10.9449C16.4027 11.1239 14.9265 12.794 15.4782 13.0475C16.03 13.3009 16.6413 13.6887 16.194 14.807C15.7466 15.9105 15.6721 17.6402 18.8631 17.9086C22.0393 18.1919 24.4848 16.7753 25.0961 15.2693C25.7075 13.7483 25.3198 12.8536 24.6339 12.0335C23.948 11.2133 23.948 10.5572 24.1567 10.0353C24.3655 9.51343 23.2024 9.11082 21.3683 9.49852C19.6684 9.8713 18.6096 9.85639 16.7159 10.9449Z" fill="url(#paint28_linear_829_5406)"/>
<path d="M25.1113 14.0912C25.1859 14.2105 25.1859 14.3596 25.1113 14.4789C24.8131 15.0455 23.7842 16.5814 21.3089 17.1331C18.8783 17.6699 17.2977 16.8349 16.7609 16.4919C16.6416 16.4025 16.5671 16.2683 16.582 16.1191L16.6416 15.463L16.9995 11.8395L22.8597 10.1545L23.65 11.5562L25.1113 14.0912Z" fill="url(#paint29_linear_829_5406)"/>
<path d="M23.6649 11.5562C23.0088 12.7641 22.5466 13.4202 21.1151 14.3C19.4002 15.3736 17.9687 15.6569 16.6416 15.4481L16.9995 11.8247L22.8597 10.1396L23.6649 11.5562Z" fill="url(#paint30_linear_829_5406)"/>
<path d="M14.7481 11.78C14.599 11.8545 14.6288 12.0782 14.7928 12.1229C15.3445 12.2422 16.2989 12.4659 17.3576 12.7939C18.0584 13.0027 18.7593 13.2413 19.3259 13.4351C20.146 13.7184 21.0556 13.4202 21.5477 12.7045C21.9652 12.0931 22.4573 11.4072 22.7854 11.0195C23.2327 10.4827 23.9783 9.82655 24.4555 9.43885C24.5897 9.33447 24.5151 9.11079 24.3362 9.11079C23.5459 9.14062 22.1293 9.17044 21.3837 9.14062C20.7276 9.11079 19.9075 9.02132 19.3706 8.94677C19.0277 8.90203 18.6847 9.02133 18.4312 9.25991C18.0435 9.61779 17.4172 10.1844 16.6418 10.6765C15.8814 11.1686 15.1954 11.5563 14.7481 11.78Z" fill="url(#paint31_linear_829_5406)"/>
<path d="M15.0911 11.944C14.927 12.0037 15.6577 12.1379 16.5077 12.3466C17.3576 12.5554 18.7593 13.0773 19.2812 13.2711C19.8031 13.465 20.5039 13.465 20.9215 13.1668C21.339 12.8685 21.7416 12.1677 22.1889 11.5861C22.7854 10.8257 23.9634 9.66255 23.8441 9.63273C23.7248 9.60291 22.5319 10.602 21.6969 11.7502C21.2793 12.3466 20.9215 12.8387 20.3399 12.9729C19.7584 13.1071 19.3856 12.958 18.7444 12.7343C18.1032 12.5106 16.8506 12.1528 16.3884 12.0335C15.9261 11.9142 15.2849 11.8695 15.0911 11.944Z" fill="url(#paint32_linear_829_5406)"/>
<defs>
<linearGradient id="paint0_linear_829_5406" x1="-0.00882761" y1="34.0936" x2="39.7252" y2="34.0936" gradientUnits="userSpaceOnUse">
<stop stop-color="#DDDCFE"/>
<stop offset="1" stop-color="#B1AFE9"/>
</linearGradient>
<linearGradient id="paint1_linear_829_5406" x1="10.7758" y1="37.1138" x2="8.9271" y2="24.9126" gradientUnits="userSpaceOnUse">
<stop stop-color="#DDDCFE"/>
<stop offset="1" stop-color="#F7F9FF"/>
</linearGradient>
<linearGradient id="paint2_linear_829_5406" x1="8.68277" y1="29.0258" x2="14.8204" y2="42.558" gradientUnits="userSpaceOnUse">
<stop stop-color="#DDDCFE"/>
<stop offset="1" stop-color="#B1AFE9"/>
</linearGradient>
<linearGradient id="paint3_linear_829_5406" x1="30.9797" y1="35.0868" x2="32.0889" y2="26.6569" gradientUnits="userSpaceOnUse">
<stop stop-color="#DDDCFE"/>
<stop offset="1" stop-color="#F7F9FF"/>
</linearGradient>
<linearGradient id="paint4_linear_829_5406" x1="32.972" y1="26.2786" x2="28.3873" y2="42.1771" gradientUnits="userSpaceOnUse">
<stop stop-color="#DDDCFE"/>
<stop offset="1" stop-color="#B1AFE9"/>
</linearGradient>
<linearGradient id="paint5_linear_829_5406" x1="20.0922" y1="-0.0701925" x2="20.0922" y2="28.1041" gradientUnits="userSpaceOnUse">
<stop stop-color="#0D1748"/>
<stop offset="1" stop-color="#1B237E"/>
</linearGradient>
<linearGradient id="paint6_linear_829_5406" x1="19.8439" y1="2.76426" x2="20.0851" y2="6.91203" gradientUnits="userSpaceOnUse">
<stop stop-color="#0D1748"/>
<stop offset="1" stop-color="#1B237E"/>
</linearGradient>
<linearGradient id="paint7_linear_829_5406" x1="11.8915" y1="36.1076" x2="12.1133" y2="29.3785" gradientUnits="userSpaceOnUse">
<stop stop-color="#F9B566"/>
<stop offset="1" stop-color="#F94E33"/>
</linearGradient>
<linearGradient id="paint8_linear_829_5406" x1="26.9454" y1="36.6039" x2="27.1672" y2="29.8748" gradientUnits="userSpaceOnUse">
<stop stop-color="#F9B566"/>
<stop offset="1" stop-color="#F94E33"/>
</linearGradient>
<linearGradient id="paint9_linear_829_5406" x1="9.12906" y1="33.8077" x2="10.7064" y2="27.2517" gradientUnits="userSpaceOnUse">
<stop stop-color="#F9B566"/>
<stop offset="1" stop-color="#F06C49"/>
</linearGradient>
<linearGradient id="paint10_linear_829_5406" x1="31.8724" y1="34.1536" x2="29.605" y2="28.2879" gradientUnits="userSpaceOnUse">
<stop stop-color="#F9B566"/>
<stop offset="1" stop-color="#F06C49"/>
</linearGradient>
<linearGradient id="paint11_linear_829_5406" x1="19.876" y1="24.0131" x2="19.876" y2="32.1346" gradientUnits="userSpaceOnUse">
<stop stop-color="#F9B566"/>
<stop offset="1" stop-color="#F06C49"/>
</linearGradient>
<linearGradient id="paint12_linear_829_5406" x1="19.8763" y1="-1.06143" x2="19.8763" y2="5.24891" gradientUnits="userSpaceOnUse">
<stop stop-color="#F9B566"/>
<stop offset="1" stop-color="#F06C49"/>
</linearGradient>
<linearGradient id="paint13_linear_829_5406" x1="23.832" y1="19.1327" x2="25.2115" y2="19.1327" gradientUnits="userSpaceOnUse">
<stop stop-color="#DDDCFE"/>
<stop offset="1" stop-color="#B1AFE9"/>
</linearGradient>
<linearGradient id="paint14_linear_829_5406" x1="26.2557" y1="16.9899" x2="28.0192" y2="16.9899" gradientUnits="userSpaceOnUse">
<stop stop-color="#DDDCFE"/>
<stop offset="1" stop-color="#B1AFE9"/>
</linearGradient>
<linearGradient id="paint15_linear_829_5406" x1="26.5385" y1="12.6753" x2="28.2875" y2="12.6753" gradientUnits="userSpaceOnUse">
<stop stop-color="#DDDCFE"/>
<stop offset="1" stop-color="#B1AFE9"/>
</linearGradient>
<linearGradient id="paint16_linear_829_5406" x1="20.527" y1="20.1072" x2="21.1116" y2="20.1072" gradientUnits="userSpaceOnUse">
<stop stop-color="#DDDCFE"/>
<stop offset="1" stop-color="#B1AFE9"/>
</linearGradient>
<linearGradient id="paint17_linear_829_5406" x1="16.1719" y1="19.4458" x2="17.3842" y2="19.4458" gradientUnits="userSpaceOnUse">
<stop stop-color="#DDDCFE"/>
<stop offset="1" stop-color="#B1AFE9"/>
</linearGradient>
<linearGradient id="paint18_linear_829_5406" x1="12.6702" y1="16.0059" x2="14.559" y2="16.0059" gradientUnits="userSpaceOnUse">
<stop stop-color="#DDDCFE"/>
<stop offset="1" stop-color="#B1AFE9"/>
</linearGradient>
<linearGradient id="paint19_linear_829_5406" x1="12.1938" y1="11.8614" x2="14.1601" y2="11.8614" gradientUnits="userSpaceOnUse">
<stop stop-color="#DDDCFE"/>
<stop offset="1" stop-color="#B1AFE9"/>
</linearGradient>
<linearGradient id="paint20_linear_829_5406" x1="14.0595" y1="8.16236" x2="15.5825" y2="8.16236" gradientUnits="userSpaceOnUse">
<stop stop-color="#DDDCFE"/>
<stop offset="1" stop-color="#B1AFE9"/>
</linearGradient>
<linearGradient id="paint21_linear_829_5406" x1="18.0466" y1="6.25609" x2="18.9682" y2="6.25609" gradientUnits="userSpaceOnUse">
<stop stop-color="#DDDCFE"/>
<stop offset="1" stop-color="#B1AFE9"/>
</linearGradient>
<linearGradient id="paint22_linear_829_5406" x1="22.5725" y1="6.4624" x2="23.7994" y2="6.4624" gradientUnits="userSpaceOnUse">
<stop stop-color="#DDDCFE"/>
<stop offset="1" stop-color="#B1AFE9"/>
</linearGradient>
<linearGradient id="paint23_linear_829_5406" x1="25.7804" y1="9.46744" x2="27.5565" y2="9.46744" gradientUnits="userSpaceOnUse">
<stop stop-color="#DDDCFE"/>
<stop offset="1" stop-color="#B1AFE9"/>
</linearGradient>
<linearGradient id="paint24_linear_829_5406" x1="26.0437" y1="18.7971" x2="40.0015" y2="18.7971" gradientUnits="userSpaceOnUse">
<stop stop-color="#F9B566"/>
<stop offset="1" stop-color="#F89E44"/>
</linearGradient>
<linearGradient id="paint25_linear_829_5406" x1="35.3114" y1="21.6447" x2="40.0016" y2="21.6447" gradientUnits="userSpaceOnUse">
<stop stop-color="#0D1748"/>
<stop offset="1" stop-color="#1B237E"/>
</linearGradient>
<linearGradient id="paint26_linear_829_5406" x1="14.4881" y1="13.7864" x2="15.8433" y2="18.4437" gradientUnits="userSpaceOnUse">
<stop stop-color="#F9B566"/>
<stop offset="1" stop-color="#F89E44"/>
</linearGradient>
<linearGradient id="paint27_linear_829_5406" x1="14.393" y1="18.4421" x2="14.6939" y2="19.4764" gradientUnits="userSpaceOnUse">
<stop stop-color="#F9B566"/>
<stop offset="1" stop-color="#F89E44"/>
</linearGradient>
<linearGradient id="paint28_linear_829_5406" x1="20.4077" y1="13.7072" x2="22.6263" y2="22.5815" gradientUnits="userSpaceOnUse">
<stop stop-color="#0D1748"/>
<stop offset="1" stop-color="#1B237E"/>
</linearGradient>
<linearGradient id="paint29_linear_829_5406" x1="21.5677" y1="16.9989" x2="19.9761" y2="12.8993" gradientUnits="userSpaceOnUse">
<stop stop-color="#F9B566"/>
<stop offset="1" stop-color="#F89E44"/>
</linearGradient>
<linearGradient id="paint30_linear_829_5406" x1="20.5948" y1="15.7363" x2="19.8696" y2="12.0065" gradientUnits="userSpaceOnUse">
<stop stop-color="#F9B566"/>
<stop offset="1" stop-color="#EE5D3A"/>
</linearGradient>
<linearGradient id="paint31_linear_829_5406" x1="20.4867" y1="13.8757" x2="18.7859" y2="7.70115" gradientUnits="userSpaceOnUse">
<stop stop-color="#F9B566"/>
<stop offset="1" stop-color="#F89E44"/>
</linearGradient>
<linearGradient id="paint32_linear_829_5406" x1="19.7183" y1="14.4715" x2="20.0527" y2="19.1527" gradientUnits="userSpaceOnUse">
<stop stop-color="#FBCA6A"/>
<stop offset="1" stop-color="#F89E44"/>
</linearGradient>
</defs>
</svg>
