<svg xmlns="http://www.w3.org/2000/svg" width="50" height="50" fill="none" viewBox="0 0 50 50"><rect width="50" height="50" fill="#FFF5FA" rx="12"/><path fill="#573353" d="M17.8037 22V14.8H22.1387V16.005H19.0087V17.8H21.5387V19H19.0087V22H17.8037ZM22.7381 22V14.8H27.3881V15.93H23.9431V17.705H26.7881V18.835H23.9431V20.87H27.3881V22H22.7381ZM28.2877 22V14.8H31.1427C31.6294 14.8 32.0277 14.8983 32.3377 15.095C32.651 15.2883 32.8827 15.5367 33.0327 15.84C33.186 16.1433 33.2627 16.4567 33.2627 16.78C33.2627 17.1767 33.1677 17.5133 32.9777 17.79C32.791 18.0667 32.536 18.2533 32.2127 18.35V18.1C32.666 18.2033 33.0094 18.4183 33.2427 18.745C33.4794 19.0717 33.5977 19.4433 33.5977 19.86C33.5977 20.2867 33.516 20.66 33.3527 20.98C33.1894 21.3 32.946 21.55 32.6227 21.73C32.3027 21.91 31.906 22 31.4327 22H28.2877ZM29.5077 20.865H31.2827C31.4927 20.865 31.681 20.8233 31.8477 20.74C32.0144 20.6533 32.1444 20.5333 32.2377 20.38C32.3344 20.2233 32.3827 20.0383 32.3827 19.825C32.3827 19.6317 32.341 19.4583 32.2577 19.305C32.1744 19.1517 32.0527 19.03 31.8927 18.94C31.7327 18.8467 31.541 18.8 31.3177 18.8H29.5077V20.865ZM29.5077 17.675H31.1277C31.301 17.675 31.456 17.6417 31.5927 17.575C31.7294 17.5083 31.8377 17.41 31.9177 17.28C31.9977 17.15 32.0377 16.99 32.0377 16.8C32.0377 16.55 31.9577 16.3417 31.7977 16.175C31.6377 16.0083 31.4144 15.925 31.1277 15.925H29.5077V17.675Z" opacity=".5"/><path fill="#573353" d="M21.4998 38.216C20.9238 38.216 20.3798 38.104 19.8677 37.88C19.3557 37.656 18.9104 37.3387 18.5317 36.928C18.1584 36.5173 17.8891 36.032 17.7237 35.472L19.5877 34.968C19.7211 35.4267 19.9637 35.7813 20.3157 36.032C20.6731 36.2773 21.0651 36.3973 21.4917 36.392C21.8704 36.392 22.2091 36.304 22.5078 36.128C22.8064 35.952 23.0411 35.7147 23.2118 35.416C23.3824 35.112 23.4678 34.7733 23.4678 34.4C23.4678 33.8293 23.2838 33.352 22.9158 32.968C22.5477 32.584 22.0731 32.392 21.4917 32.392C21.3157 32.392 21.1424 32.416 20.9718 32.464C20.8064 32.512 20.6464 32.5787 20.4918 32.664L19.6117 31.144L23.4837 27.832L23.6518 28.296H18.1717V26.48H25.2358V28.304L22.1238 31.296L22.1077 30.728C22.8064 30.776 23.4011 30.9707 23.8917 31.312C24.3878 31.6533 24.7664 32.0933 25.0278 32.632C25.2944 33.1707 25.4278 33.76 25.4278 34.4C25.4278 35.1253 25.2491 35.776 24.8918 36.352C24.5398 36.928 24.0651 37.384 23.4678 37.72C22.8758 38.0507 22.2198 38.216 21.4998 38.216ZM29.0206 38V28.584L26.8606 29.904V27.776L29.0206 26.48H30.9886V38H29.0206Z"/></svg>