<svg width="18" height="18" viewBox="0 0 18 18" fill="none" xmlns="http://www.w3.org/2000/svg">
<path d="M9.00012 0C7.22007 0 5.47999 0.527848 3.99993 1.51679C2.51986 2.50574 1.3663 3.91137 0.685097 5.55592C0.00389957 7.20048 -0.174333 9.01011 0.172939 10.756C0.52021 12.5018 1.37739 14.1055 2.63608 15.3642C3.89477 16.6229 5.49844 17.48 7.24429 17.8273C8.99014 18.1746 10.7998 17.9963 12.4443 17.3151C14.0889 16.634 15.4945 15.4804 16.4834 14.0003C17.4724 12.5203 18.0002 10.7802 18.0002 9.00012C17.9975 6.61398 17.0484 4.32636 15.3611 2.6391C13.6739 0.951843 11.3863 0.00273934 9.00012 0ZM12.1976 11.6052L8.59755 9.80518C8.44806 9.73042 8.32234 9.6155 8.23448 9.47331C8.14662 9.33112 8.10009 9.16727 8.10011 9.00012V4.50006C8.10011 4.26136 8.19493 4.03244 8.36372 3.86366C8.5325 3.69487 8.76143 3.60005 9.00012 3.60005C9.23882 3.60005 9.46774 3.69487 9.63653 3.86366C9.80531 4.03244 9.90014 4.26136 9.90014 4.50006V8.44373L13.0027 9.995C13.2163 10.1018 13.3786 10.289 13.4541 10.5155C13.5296 10.742 13.512 10.9891 13.4053 11.2027C13.2985 11.4162 13.1113 11.5786 12.8848 11.6541C12.6583 11.7295 12.4111 11.712 12.1976 11.6052Z" fill="#FDA758"/>
</svg>
