<svg xmlns="http://www.w3.org/2000/svg" width="22" height="22" fill="none" viewBox="0 0 22 22"><path fill="#FDA758" d="M0 11C0 4.92487 4.92487 0 11 0V0C17.0751 0 22 4.92487 22 11V11C22 17.0751 17.0751 22 11 22V22C4.92487 22 0 17.0751 0 11V11Z" opacity=".1"/><g clip-path="url(#clip0_817_5655)"><path fill="#FC9D45" d="M11.0002 5.21045C9.40407 5.21045 8.10549 6.50903 8.10549 8.10519V9.84203H7.52655C7.21945 9.84203 6.92494 9.96402 6.70779 10.1812C6.49064 10.3983 6.36865 10.6928 6.36865 10.9999V15.6315C6.36865 15.9386 6.49064 16.2331 6.70779 16.4503C6.92494 16.6674 7.21945 16.7894 7.52655 16.7894H14.4739C14.781 16.7894 15.0755 16.6674 15.2927 16.4503C15.5098 16.2331 15.6318 15.9386 15.6318 15.6315V10.9999C15.6318 10.6928 15.5098 10.3983 15.2927 10.1812C15.0755 9.96402 14.781 9.84203 14.4739 9.84203H13.895V8.10519C13.895 6.50903 12.5964 5.21045 11.0002 5.21045ZM9.26339 8.10519C9.26339 7.14761 10.0427 6.36834 11.0002 6.36834C11.9578 6.36834 12.7371 7.14761 12.7371 8.10519V9.84203H9.26339V8.10519ZM11.5792 14.3132V15.6315H10.4213V14.3132C10.2189 14.1973 10.0563 14.0228 9.95513 13.8127C9.85392 13.6025 9.81876 13.3666 9.85431 13.1361C9.88986 12.9056 9.99444 12.6912 10.1543 12.5214C10.3141 12.3515 10.5216 12.234 10.7495 12.1844C10.9188 12.147 11.0944 12.1481 11.2632 12.1875C11.4321 12.227 11.5899 12.3038 11.7251 12.4124C11.8602 12.5209 11.9693 12.6585 12.0443 12.8148C12.1192 12.9712 12.1581 13.1423 12.1581 13.3157C12.1578 13.5182 12.1041 13.717 12.0025 13.8921C11.9008 14.0673 11.7548 14.2125 11.5792 14.3132V14.3132Z"/></g><defs><clipPath id="clip0_817_5655"><rect width="9.263" height="11.579" fill="#fff" transform="translate(6.36865 5.21045)"/></clipPath></defs></svg>