<svg xmlns="http://www.w3.org/2000/svg" width="40" height="41" fill="none" viewBox="0 0 40 41"><g style="mix-blend-mode:luminosity"><path fill="url(#paint0_linear_829_5612)" d="M22.4313 5.3528C19.5235 4.86562 15.6109 5.76385 13.7688 6.37282C11.9266 6.98178 11.1502 6.32715 12.3834 5.13966C13.6165 3.9674 17.4682 2.93216 17.3617 1.60765C17.2551 0.267924 12.5965 -0.447613 6.38503 5.24623C0.325807 10.8031 -0.587644 18.7805 0.280134 23.7132C1.14791 28.6458 2.59421 29.4527 3.09661 28.7371C3.61423 28.0216 2.42674 25.8141 1.92435 23.089C1.40672 20.3638 1.66553 18.3238 2.53331 17.8518C3.40109 17.3799 2.99004 23.5914 4.78649 26.7732C6.58294 29.9551 8.3185 30.0007 9.50599 29.5897C10.6782 29.1786 6.01965 22.4648 8.42507 16.4664C10.8305 10.4681 15.55 8.626 18.9906 8.26062C22.4313 7.89524 24.7911 9.34153 26.0699 8.15405C27.3487 6.96656 25.5066 5.87042 22.4313 5.3528Z"/><path fill="#FFF5FA" d="M4.19262 31.3098C3.21827 31.4012 4.87771 35.466 8.80554 38.0389C12.7334 40.6118 13.4641 39.8049 13.5403 39.1959C13.6164 38.587 12.2767 38.8153 9.2775 36.4708C6.27833 34.1263 5.07562 31.2337 4.19262 31.3098Z"/><path fill="#FFF5FA" d="M15.0017 39.8354C14.682 40.2922 15.6564 40.8859 17.3767 40.9468C19.1122 41.0077 19.6755 40.6119 19.2493 40.1399C18.823 39.668 17.8334 39.7136 16.7525 39.531C15.6716 39.3483 15.2453 39.4701 15.0017 39.8354Z"/><path fill="#FFF5FA" d="M4.42132 2.79503C2.73143 4.31744 1.30036 6.14434 1.48305 6.95123C1.65052 7.75811 2.50307 7.11869 3.67533 5.48971C4.8476 3.86072 8.21214 1.50097 9.49097 0.952901C10.7546 0.389606 10.6632 -0.386827 8.82111 0.22214C7.13122 0.77021 5.76105 1.59231 4.42132 2.79503Z"/><path fill="#FFF5FA" d="M27.8966 7.77328C27.105 7.31655 26.3133 8.50404 27.242 9.76764C28.1706 11.0312 31.8549 15.9639 29.7083 22.4951C27.5617 29.0414 23.71 29.8788 23.4055 31.2642C23.101 32.6496 25.8718 32.6496 27.4856 31.5687C29.0993 30.4877 31.9919 27.5647 33.0272 24.9461C34.0624 22.3276 33.9558 21.9774 34.717 22.0688C35.4935 22.1449 35.2499 25.8748 32.4791 29.4525C29.7083 33.0302 27.5617 34.2938 27.6682 35.2681C27.7748 36.2425 34.7475 33.5021 37.3204 25.1897C39.8933 16.8773 35.0367 8.06254 32.1594 5.48965C29.282 2.93199 27.8509 3.58663 28.3686 4.81978C28.8862 6.05294 30.9871 6.92072 32.0071 9.02166C33.0272 11.1226 31.7483 11.3814 30.7283 10.1026C29.7083 8.83897 28.8101 8.30612 27.8966 7.77328Z"/><path fill="#FFF5FA" d="M21.3503 0.998672C20.7566 1.28793 21.7614 1.97302 23.7405 2.38407C25.7196 2.79512 26.9528 4.18052 27.4095 3.95216C27.8662 3.7238 26.8158 2.53631 25.3543 1.71421C23.8927 0.892103 22.3703 0.48105 21.3503 0.998672Z"/><path fill="#FFF5FA" d="M18.7623 0.739776C17.9402 0.922466 17.9402 1.50099 18.26 1.6989C18.5797 1.88159 20.0564 1.56188 19.9803 1.16605C19.8889 0.770225 19.4018 0.602759 18.7623 0.739776Z"/><path fill="#FFF5FA" d="M24.471 37.3692C22.568 38.0239 19.8581 38.237 19.7515 38.8612C19.6449 39.4854 22.431 39.6376 24.608 38.8612C26.7851 38.0848 27.5006 37.2322 27.3484 36.6689C27.1961 36.1056 25.8716 36.8821 24.471 37.3692Z"/><path fill="url(#paint1_linear_829_5612)" d="M39.7109 24.2307C39.1324 23.9262 38.3255 27.717 36.7422 30.0311C35.1589 32.3451 34.2302 33.1063 34.3824 33.3652C34.5347 33.624 36.8183 32.0863 38.3864 29.2851C39.9393 26.4838 40.3503 24.5656 39.7109 24.2307Z"/><path fill="url(#paint2_linear_829_5612)" d="M19.3562 32.9085C26.5619 32.9085 32.4033 27.1694 32.4033 20.0898C32.4033 13.0101 26.5619 7.271 19.3562 7.271C12.1505 7.271 6.30908 13.0101 6.30908 20.0898C6.30908 27.1694 12.1505 32.9085 19.3562 32.9085Z"/><path fill="url(#paint3_linear_829_5612)" d="M20.0562 31.4011C26.8163 31.4011 32.2964 26.0164 32.2964 19.374C32.2964 12.7316 26.8163 7.34692 20.0562 7.34692C13.2961 7.34692 7.81592 12.7316 7.81592 19.374C7.81592 26.0164 13.2961 31.4011 20.0562 31.4011Z"/><path fill="url(#paint4_linear_829_5612)" d="M20.0258 29.6657C25.6003 29.6657 30.1194 25.0717 30.1194 19.4046C30.1194 13.7376 25.6003 9.14355 20.0258 9.14355C14.4512 9.14355 9.93213 13.7376 9.93213 19.4046C9.93213 25.0717 14.4512 29.6657 20.0258 29.6657Z"/><path fill="url(#paint5_linear_829_5612)" d="M29.2063 16.1008C31.0028 21.2313 28.5974 26.7577 23.817 28.4324C19.0366 30.107 13.7081 27.3058 11.9117 22.16C10.1152 17.0295 12.5206 11.5031 17.301 9.82842C22.0814 8.15376 27.4099 10.955 29.2063 16.1008Z"/><path fill="url(#paint6_linear_829_5612)" d="M29.1604 15.7356C30.8807 20.6226 28.7189 25.8292 24.3343 27.3669C19.9498 28.9045 15.0171 26.1794 13.2968 21.2924C11.5765 16.4055 13.7383 11.1988 18.1229 9.66115C22.5074 8.12351 27.4401 10.8486 29.1604 15.7356Z"/><path fill="url(#paint7_linear_829_5612)" d="M28.2016 18.7651C28.2625 21.4598 26.9684 23.8957 24.6848 24.9157C21.4725 26.3468 17.499 24.4285 15.8243 20.6377C14.6825 18.0496 14.8957 15.2636 16.1593 13.2997C16.753 12.3862 17.5751 11.6555 18.5951 11.1987C21.8074 9.76765 25.781 11.6859 27.4556 15.4767C27.9428 16.5576 28.1864 17.6842 28.2016 18.7651Z"/><path fill="url(#paint8_linear_829_5612)" d="M28.2015 18.7651C27.6078 19.6786 26.7857 20.4094 25.7656 20.8661C22.5533 22.2972 18.5798 20.3789 16.9052 16.5881C16.418 15.5072 16.1744 14.3806 16.1592 13.2997C16.7529 12.3862 17.575 11.6555 18.595 11.1987C21.8073 9.76765 25.7809 11.6859 27.4555 15.4767C27.9427 16.5576 28.1863 17.6842 28.2015 18.7651Z"/><path fill="url(#paint9_linear_829_5612)" d="M27.3791 22.3731C28.0489 20.531 28.0033 18.2778 27.0594 16.1617C25.3238 12.2643 21.2437 10.2851 17.9249 11.7466C17.5899 11.8989 17.2702 12.0816 16.981 12.2795C17.4377 11.8228 17.9857 11.4574 18.5947 11.1833C21.807 9.75227 25.7805 11.6705 27.4552 15.4613C28.5209 17.8668 28.4143 20.4549 27.3791 22.3731Z"/><path fill="#1B237E" d="M16.6616 21.338C16.5702 21.338 16.4789 21.2923 16.4332 21.201C16.3571 21.0792 16.4028 20.9117 16.5246 20.8356L18.0317 19.9374C18.1535 19.8612 18.321 19.9069 18.3971 20.0287C18.4732 20.1505 18.4276 20.318 18.3058 20.3941L16.7986 21.2923C16.7529 21.338 16.7072 21.338 16.6616 21.338Z"/><path fill="#1B237E" d="M18.7472 14.2892C18.6559 14.2892 18.5797 14.2436 18.5188 14.1674L17.5293 12.7211C17.4379 12.5994 17.4684 12.4319 17.6054 12.3405C17.7272 12.2492 17.8946 12.2796 17.986 12.4167L18.9756 13.863C19.0669 13.9848 19.0365 14.1522 18.8994 14.2436C18.8538 14.274 18.7929 14.2892 18.7472 14.2892Z"/><path fill="#1B237E" d="M25.415 23.9109C25.3237 23.9109 25.2475 23.8652 25.1866 23.7891L24.395 22.632C24.3036 22.5102 24.3341 22.3428 24.4711 22.2514C24.5929 22.1601 24.7604 22.1905 24.8517 22.3276L25.6434 23.4846C25.7347 23.6064 25.7043 23.7738 25.5673 23.8652C25.5216 23.8956 25.4607 23.9109 25.415 23.9109Z"/><path fill="#1B237E" d="M25.2178 16.4966C25.1264 16.4966 25.0351 16.451 24.9742 16.3596C24.898 16.2226 24.9437 16.0704 25.0807 15.9943L26.1008 15.431C26.2378 15.3548 26.39 15.4005 26.4661 15.5375C26.5423 15.6745 26.4966 15.8268 26.3596 15.9029L25.3395 16.4662C25.2939 16.4814 25.2482 16.4966 25.2178 16.4966Z"/><path fill="url(#paint10_linear_829_5612)" d="M18.656 4.91111L17.0879 7.71235C17.0879 7.71235 20.6808 6.95114 23.3907 7.89504C26.1006 8.83894 28.1711 10.5745 28.1711 10.5745C28.1711 10.5745 28.1559 8.70193 28.1711 8.10818C28.2015 7.16428 28.1406 6.05292 27.0445 5.55052C25.6591 4.91111 22.4925 3.96721 21.3507 3.70839C19.7369 3.35824 18.9605 4.11945 18.656 4.91111Z"/><path fill="url(#paint11_linear_829_5612)" d="M12.8555 29.1023L13.16 34.0958C13.1904 34.6134 13.5253 35.0702 14.0125 35.2681C14.926 35.6182 16.4179 36.1663 17.849 36.4556C19.5998 36.821 21.0156 36.8057 21.7768 36.8362C22.2031 36.8666 22.7816 36.486 22.9187 36.075L24.8064 30.4572C24.8064 30.4572 20.8786 31.8426 17.575 31.0814C14.8955 30.4877 12.8555 29.1023 12.8555 29.1023Z"/><path fill="#F94E33" d="M13.2056 34.4155C13.2056 34.4155 14.2257 35.2224 16.8594 35.877C20.3915 36.7601 22.9034 36.0293 22.9034 36.0293C22.9034 36.0293 22.5381 37.8562 20.6503 37.841C19.9804 37.841 18.7929 37.841 16.8899 37.4604C15.0325 37.0798 13.571 36.6535 12.825 36.1054C12.551 35.8923 12.6728 35.2224 12.8707 34.9331L13.2056 34.4155Z"/><path fill="#F94E33" d="M12.8554 29.1023L13.2208 34.4155C13.2208 34.4155 12.9468 34.8418 12.8402 35.2224C12.7336 35.603 12.7641 36.0293 12.7641 36.0293C12.7641 36.0293 12.2617 35.6487 12.2008 34.5221C12.1703 33.9588 11.7593 30.4572 11.7593 30.4572L12.8554 29.1023Z"/><path fill="url(#paint12_linear_829_5612)" d="M7.86208 18.2019L3.05124 21.1097C2.59452 21.3838 2.32048 21.9014 2.35093 22.4342C2.3966 23.1954 2.50317 24.3372 2.83811 25.3573C3.41662 27.108 4.04082 28.2346 4.48232 28.8741C4.7868 29.3156 5.31965 29.5287 5.83727 29.4221L11.8204 28.2194C11.8204 28.2194 9.56719 26.0728 8.60807 23.439C7.57282 20.5617 7.86208 18.2019 7.86208 18.2019Z"/><path fill="#F94E33" d="M4.81689 29.2241C4.81689 29.2241 5.45631 30.2289 6.41543 30.3659C7.37456 30.503 10.9218 29.8788 10.9218 29.8788L11.82 28.2041C11.82 28.2041 9.18623 28.6608 7.51157 29.0262C5.82169 29.4068 4.81689 29.2241 4.81689 29.2241Z"/><path fill="#F94E33" d="M2.4574 21.8101C2.4574 21.8101 2.0159 22.7996 2.19859 24.185C2.32038 25.2051 2.68576 26.56 3.49265 28.0063C4.2843 29.4374 5.10641 29.8789 5.56313 30.1072C6.01986 30.3356 6.233 30.3356 6.233 30.3356C6.233 30.3356 4.39087 28.463 3.67533 26.8036C2.5183 24.1394 2.4574 21.8101 2.4574 21.8101Z"/><path fill="url(#paint13_linear_829_5612)" d="M7.953 17.6386C7.953 17.6386 3.62933 13.3911 3.93382 11.9752C4.02516 11.5489 4.90816 9.90473 6.17177 8.44321C7.43538 6.98168 8.50107 6.69242 9.01869 6.75332C10.4498 6.90556 14.4842 8.74769 14.4842 8.74769C14.4842 8.74769 11.2262 10.8791 9.99304 12.5537C8.37928 14.746 7.953 17.6386 7.953 17.6386Z"/><path fill="#F94E33" d="M6.47654 18.141C6.47654 18.141 4.46694 15.9487 3.85798 14.6547C3.24901 13.3606 3.17289 13.1323 3.3708 12.6603C3.58394 12.1731 3.88843 11.8687 3.88843 11.8687C3.88843 11.8687 4.83232 13.6956 6.09593 15.1723C7.35954 16.649 7.93806 17.6234 7.93806 17.6234L6.47654 18.141Z"/><path fill="#F94E33" d="M3.26416 13.1929L3.93402 12.3404C3.93402 12.3404 4.16238 11.0768 5.44122 9.47822C6.70482 7.87968 7.25289 7.37728 7.77051 7.0728C8.28814 6.76832 8.86666 6.73787 8.86666 6.73787C8.86666 6.73787 8.56217 6.60085 7.78574 6.87488C7.00931 7.14892 5.79137 8.16894 5.03016 9.18896C4.26895 10.209 3.88835 10.9397 3.67521 11.4421C3.37073 12.1424 3.26416 13.1929 3.26416 13.1929Z"/><path fill="url(#paint14_linear_829_5612)" d="M33.0733 11.5639L29.0693 11.4421C29.0693 11.4421 31.3073 14.1064 31.8097 16.6336C32.3121 19.1608 32.0076 21.9773 32.0076 21.9773L35.905 19.7241C36.3769 19.4196 36.6662 18.902 36.6357 18.3387C36.6053 17.6841 36.4835 16.6945 36.0877 15.3395C35.7071 14.015 34.7023 12.584 34.2608 12.112C33.9563 11.7466 33.53 11.5487 33.0733 11.5639Z"/><path fill="#F94E33" d="M32.0225 21.6577C32.0225 21.6577 34.8389 19.983 35.661 19.572C36.4831 19.1457 36.6354 18.6433 36.6354 18.6433C36.6354 18.6433 36.5593 19.435 35.9503 19.8308C35.3413 20.2266 32.2204 22.2971 32.2204 22.2971L32.0225 21.6577Z"/><path fill="#F94E33" d="M20.1934 3.63232C20.1934 3.63232 19.4779 3.92158 19.1582 4.51533C18.8385 5.12429 17.0877 7.7124 17.0877 7.7124L16.5244 7.57539C16.5244 7.57539 18.0621 4.91116 18.5949 4.24129C19.1277 3.57143 19.8433 3.678 20.1934 3.63232Z"/><path fill="url(#paint15_linear_829_5612)" d="M25.9028 29.9396L30.7746 32.9083C31.4749 33.3346 32.3731 33.1367 32.8298 32.4516L35.3266 28.6912C35.7224 28.0822 35.6463 27.2906 35.1439 26.773L31.6423 23.2866C31.6423 23.2866 30.7441 25.3571 29.4805 26.8948C27.8668 28.8587 25.9028 29.9396 25.9028 29.9396Z"/><path fill="#F94E33" d="M25.9023 29.9397L25.4761 31.4317C25.4761 31.4317 29.3126 33.4869 30.0586 33.8219C30.8045 34.172 31.0633 34.2329 31.4287 34.0654C31.7941 33.9132 32.601 32.7257 32.601 32.7257C32.601 32.7257 31.8855 33.152 31.2917 32.9998C30.6827 32.8627 25.9023 29.9397 25.9023 29.9397Z"/><path fill="#EC4726" d="M19.8896 18.0952L19.9658 13.1778C19.9658 12.9038 20.1789 12.6754 20.4682 12.6602C20.6813 12.645 20.8792 12.7668 20.9706 12.9647L23.2999 17.9278L23.6044 23.104C23.6196 23.4085 23.3912 23.6825 23.0867 23.713C22.8431 23.7434 22.6148 23.6064 22.5082 23.3933L19.8896 18.0952Z"/><path fill="#F7A45F" d="M19.8892 18.0953L23.2994 17.9126L23.6039 23.0888C23.6191 23.3933 23.3907 23.6673 23.0862 23.6978C22.8427 23.7282 22.6143 23.5912 22.5077 23.3781L19.8892 18.0953Z"/><path fill="#F94E33" d="M22.3611 19.1631C22.876 18.9347 23.0723 18.251 22.7996 17.6362C22.5268 17.0213 21.8883 16.708 21.3733 16.9365C20.8584 17.1649 20.662 17.8485 20.9348 18.4634C21.2075 19.0783 21.8461 19.3915 22.3611 19.1631Z"/><path fill="#FD6D47" d="M22.2513 18.8847C22.6433 18.7108 22.7952 18.196 22.5907 17.7348C22.3861 17.2737 21.9025 17.0408 21.5105 17.2147C21.1185 17.3886 20.9666 17.9034 21.1712 18.3645C21.3758 18.8257 21.8594 19.0586 22.2513 18.8847Z"/><path fill="#FFD8BB" d="M29.7388 11.5793C29.7388 11.5793 33.423 11.6555 33.6057 11.7164C33.7884 11.7773 35.1281 12.6298 36.0264 15.3549C36.8028 17.7147 36.4374 18.4911 36.4374 18.4911C36.4374 18.4911 35.5087 15.3093 34.8084 14.137C34.3821 13.391 33.9711 12.7973 33.6971 12.4623C33.5296 12.2644 32.8902 12.0513 32.6314 12.0056L29.7388 11.5793Z"/><path fill="#FFD8BB" d="M35.3109 27.1689C35.3109 27.1689 35.6306 27.854 35.3566 28.3412C35.0826 28.8284 32.8598 32.2538 32.5401 32.604C32.2204 32.9541 31.5962 33.0302 31.17 32.9084C30.7437 32.7866 28.0186 31.0968 28.0186 31.0968C28.0186 31.0968 30.7437 32.1929 31.1852 32.3451C31.6267 32.4974 31.9312 32.4517 32.5858 31.6448C33.2404 30.8379 34.8542 28.4021 34.976 28.0671C35.0978 27.7322 34.6411 26.9862 34.0778 26.3468C33.484 25.677 32.738 24.5808 32.738 24.5808C32.738 24.5808 34.9912 26.6361 35.3109 27.1689Z"/><path fill="#FFD8BB" d="M17.103 7.9103C17.103 7.9103 21.99 6.0834 27.3032 10.0874C32.586 14.0761 31.977 21.0031 31.977 21.0031C31.977 21.0031 31.5355 13.9695 27.1205 10.4984C22.6903 7.02729 17.103 7.9103 17.103 7.9103Z"/><path fill="#4056B2" d="M17.9248 9.8591C17.9248 9.8591 21.8222 8.18444 26.0088 11.3358C30.165 14.4872 29.6474 20.1811 29.6474 20.1811C29.6474 20.1811 29.3582 14.4111 25.8718 11.6708C22.3855 8.94565 17.9248 9.8591 17.9248 9.8591Z"/><path fill="#FFD8BB" d="M18.4272 6.11381C18.4272 6.11381 19.3711 4.39348 19.7517 4.01287C20.1324 3.63227 20.65 3.63227 21.2742 3.76929C21.8984 3.9063 24.3647 4.59139 25.7349 5.15469C27.105 5.71798 27.4704 5.855 27.7749 6.31172C28.0794 6.76845 28.1098 7.56011 28.0946 8.1234C28.0794 8.68669 28.0794 9.66104 28.0794 9.66104C28.0794 9.66104 28.0185 7.63623 27.6531 6.92069C27.2877 6.18993 26.9223 6.02246 25.1716 5.44395C23.4208 4.86543 20.9392 4.04332 20.3912 4.10422C19.8431 4.16511 18.4272 6.11381 18.4272 6.11381Z"/><path fill="#FFD8BB" d="M13.4791 8.39737C13.4791 8.39737 9.50563 6.95107 9.14025 6.87495C8.79009 6.79883 7.86142 7.08809 7.17633 7.7275C6.49124 8.36692 5.16674 9.88933 4.64911 10.7876C4.13149 11.6858 4.14672 12.0664 4.43598 12.5383C4.72524 13.0103 6.14108 14.9742 6.14108 14.9742C6.14108 14.9742 4.57299 12.3252 4.67956 11.8685C4.78613 11.4118 6.03451 9.47828 7.20678 8.45826C8.39426 7.43824 8.69875 7.31645 9.38383 7.42302C10.0689 7.52959 13.4791 8.39737 13.4791 8.39737Z"/><path fill="#FFD8BB" d="M14.4845 8.73242C14.4845 8.73242 11.8507 9.98081 10.0542 12.6298C8.2578 15.2788 8.09033 17.1971 8.09033 17.1971C8.09033 17.1971 9.46051 13.9391 11.1047 11.9752C12.7946 9.91991 14.4845 8.73242 14.4845 8.73242Z"/><path fill="#FFD8BB" d="M4.86247 20.1658C4.86247 20.1658 3.27915 21.064 2.8681 21.338C2.47227 21.6121 2.50272 21.9622 2.59406 22.693C2.68541 23.4237 2.79198 24.6265 3.59886 26.4077C4.40574 28.1889 5.15172 29.1176 5.39531 29.1785C5.65412 29.2394 7.86163 28.8283 8.44015 28.737C9.01867 28.6456 9.59718 28.5086 9.59718 28.5086C9.59718 28.5086 6.59802 28.8283 6.03473 28.8588C5.47143 28.8892 4.98426 28.3868 4.05558 26.1793C3.14213 23.9718 2.91377 21.9013 2.97467 21.5816C3.05079 21.2924 4.86247 20.1658 4.86247 20.1658Z"/><path fill="#FFD8BB" d="M17.5596 31.0966C17.5596 31.0966 21.8528 31.8426 25.4457 30.0766C29.0386 28.3106 30.0891 25.9661 30.0891 25.9661C30.0891 25.9661 28.2622 28.341 25.1717 29.7264C22.0659 31.1271 17.5596 31.0966 17.5596 31.0966Z"/><path fill="#FFD8BB" d="M13.0684 31.051C13.0684 31.051 13.2206 33.9893 13.3881 34.2786C13.5403 34.5678 15.215 35.5422 18.0619 35.9837C20.9088 36.4252 22.7357 36.1207 22.8118 35.938C22.888 35.7553 23.8471 32.954 23.8471 32.954C23.8471 32.954 22.8575 35.4813 22.4921 35.6792C22.1267 35.8771 19.9345 35.7553 18.1076 35.5422C16.2807 35.329 13.8448 34.309 13.7078 34.0197C13.5708 33.7305 13.0684 31.051 13.0684 31.051Z"/></g><defs><linearGradient id="paint0_linear_829_5612" x1="-.011" x2="26.481" y1="15.234" y2="15.234" gradientUnits="userSpaceOnUse"><stop stop-color="#DDDCFE"/><stop offset="1" stop-color="#B1AFE9"/></linearGradient><linearGradient id="paint1_linear_829_5612" x1="34.361" x2="40.002" y1="28.798" y2="28.798" gradientUnits="userSpaceOnUse"><stop stop-color="#DDDCFE"/><stop offset="1" stop-color="#B1AFE9"/></linearGradient><linearGradient id="paint2_linear_829_5612" x1="11.748" x2="22.427" y1="33.45" y2="14.716" gradientUnits="userSpaceOnUse"><stop stop-color="#F94E33"/><stop offset="1" stop-color="#F06C49"/></linearGradient><linearGradient id="paint3_linear_829_5612" x1="31.049" x2="8.379" y1="6.31" y2="33.224" gradientUnits="userSpaceOnUse"><stop stop-color="#F9B566"/><stop offset="1" stop-color="#F06C49"/></linearGradient><linearGradient id="paint4_linear_829_5612" x1="22.353" x2="19.937" y1="2.37" y2="20.005" gradientUnits="userSpaceOnUse"><stop stop-color="#F9B566"/><stop offset="1" stop-color="#F06C49"/></linearGradient><linearGradient id="paint5_linear_829_5612" x1="17.756" x2="25.358" y1="26.467" y2="6.556" gradientUnits="userSpaceOnUse"><stop stop-color="#0D1748"/><stop offset="1" stop-color="#1B237E"/></linearGradient><linearGradient id="paint6_linear_829_5612" x1="27.505" x2="22.708" y1="4.553" y2="15.233" gradientUnits="userSpaceOnUse"><stop stop-color="#0D1748"/><stop offset="1" stop-color="#1B237E"/></linearGradient><linearGradient id="paint7_linear_829_5612" x1="21.112" x2="22.259" y1="22.048" y2="13.42" gradientUnits="userSpaceOnUse"><stop stop-color="#F6E3EE"/><stop offset=".995" stop-color="#FDF4F8"/></linearGradient><linearGradient id="paint8_linear_829_5612" x1="16.167" x2="28.206" y1="16.032" y2="16.032" gradientUnits="userSpaceOnUse"><stop stop-color="#F8DBE9"/><stop offset=".134" stop-color="#fff"/><stop offset=".839" stop-color="#fff"/><stop offset="1" stop-color="#F8DBE9"/></linearGradient><linearGradient id="paint9_linear_829_5612" x1="23.887" x2="21.232" y1="12.917" y2="19.916" gradientUnits="userSpaceOnUse"><stop stop-color="#0D1748"/><stop offset="1" stop-color="#1B237E"/></linearGradient><linearGradient id="paint10_linear_829_5612" x1="23.63" x2="22.362" y1="4.576" y2="10.368" gradientUnits="userSpaceOnUse"><stop stop-color="#F9B566"/><stop offset="1" stop-color="#F06C49"/></linearGradient><linearGradient id="paint11_linear_829_5612" x1="17.911" x2="18.635" y1="38.295" y2="31.507" gradientUnits="userSpaceOnUse"><stop stop-color="#F9B566"/><stop offset="1" stop-color="#F06C49"/></linearGradient><linearGradient id="paint12_linear_829_5612" x1="-.065" x2="7.447" y1="27.854" y2="24.324" gradientUnits="userSpaceOnUse"><stop stop-color="#F9B566"/><stop offset="1" stop-color="#F06C49"/></linearGradient><linearGradient id="paint13_linear_829_5612" x1="7.699" x2="11.955" y1="8.776" y2="14.481" gradientUnits="userSpaceOnUse"><stop stop-color="#F9B566"/><stop offset="1" stop-color="#F06C49"/></linearGradient><linearGradient id="paint14_linear_829_5612" x1="36.682" x2="29.396" y1="13.899" y2="17.217" gradientUnits="userSpaceOnUse"><stop stop-color="#F9B566"/><stop offset="1" stop-color="#F06C49"/></linearGradient><linearGradient id="paint15_linear_829_5612" x1="36.258" x2="30.918" y1="32.069" y2="28.177" gradientUnits="userSpaceOnUse"><stop stop-color="#F9B566"/><stop offset="1" stop-color="#F06C49"/></linearGradient></defs></svg>